<?xml version="1.0" encoding="utf-8"?>
<!-- Generator: Adobe Illustrator 23.0.3, SVG Export Plug-In . SVG Version: 6.00 Build 0)  -->
<svg version="1.1" id="Layer_1" xmlns="http://www.w3.org/2000/svg" xmlns:xlink="http://www.w3.org/1999/xlink" x="0px" y="0px"
	 width="312.5px" height="340px" viewBox="0 0 312.5 340" style="enable-background:new 0 0 312.5 340;" xml:space="preserve">
<style type="text/css">
	.st0{fill:#ff6d63;}
</style>
<g>
	<g>
		<path class="st0" d="M312.5,340l-94.5-0.5v-5.1l89.4,0.4V0h5.1V340z"/>
	</g>
	<g>
		<path class="st0" d="M66.2,242.3H4.5c-1.3,0-2.4-1.1-2.4-2.4V3.2c0-1.3,1.1-2.4,2.4-2.4h61.7c1.3,0,2.4,1.1,2.4,2.4v80.2
			l77.9-81.9c0.4-0.5,1.1-0.7,1.7-0.7h70.4c0.9,0,1.8,0.5,2.2,1.4c0.4,0.8,0.3,1.8-0.3,2.5c-1.8,2.2-32.6,38.2-66,67.8
			c7.7,10.9,12.3,28.9,13.8,53.9c2.3,58.7,62.9,111.1,63.5,111.7c1,0.9,1.1,2.4,0.3,3.4c-0.9,1-2.4,1.1-3.4,0.3
			c-0.2-0.1-15.9-13.6-31.6-34.4c-14.6-19.2-32.3-48.8-33.6-80.7c-1.4-23.6-5.7-40.8-12.7-51c-13.4,11.6-27,21.9-39.3,28.3
			c-12.9,6.8-21,8.2-25,4.1c-3.2-3.3-2.6-9.4,1.8-17.1c8.7-15.5,30.8-34.7,49.6-30.3c5.1,1.2,9.6,3.8,13.4,8
			c27.2-24.2,52.9-52.9,62-63.2h-64.1L67.9,91c-0.7,0.7-1.7,0.9-2.6,0.6c-0.9-0.4-1.5-1.2-1.5-2.2V5.6H6.9v232h56.9V167
			c0-0.6,0.2-1.2,0.7-1.7l35.2-36.5c0.9-0.9,2.4-1,3.4-0.1c0.9,0.9,1,2.4,0.1,3.4L68.6,168v72C68.6,241.3,67.5,242.3,66.2,242.3z
			 M132.2,64.9c-7.7,0-15.2,4-20.5,7.7c-7.6,5.4-15,13.4-19.2,20.8c-3.5,6.2-3.8,10.2-2.6,11.4c0.6,0.6,4.1,3,19.3-5
			c11.9-6.3,25.3-16.5,38.5-27.9c-3.2-3.4-6.8-5.6-10.9-6.5C135.3,65,133.7,64.9,132.2,64.9z"/>
	</g>
	<path class="st0" d="M6.7,296.2L0,272.4h8l3.2,15.8l4-15.8h8.2l4.1,15.5l2.7-15.5h8.2l-6.7,23.8h-8l-4.5-15.6l-4.5,15.6H6.7z"/>
	<path class="st0" d="M47.8,286.1c0.3,3.2,2.4,5,6.3,5c2.6,0,5.3-0.9,7.7-2.3l0.8,6.1c-2.4,1.2-5.8,1.9-9.2,1.9
		c-8.1,0-13.3-4.5-13.3-12.4c0-7.7,5.3-12.8,12.8-12.8c6.7,0,10.4,4,10.4,9.9c0,1.3-0.2,3.2-0.5,4.2L47.8,286.1L47.8,286.1z
		 M56.1,282.1c0-0.1,0-0.4,0-0.5c0-2.8-1.2-4.5-3.6-4.5c-2.7,0-4.3,2.3-4.6,5H56.1z"/>
	<path class="st0" d="M76.5,278.3l10.6-14.1h9.3l-12.6,15.6l12.9,16.3H87l-10.5-14h-0.1c0,0.9,0,14,0,14h-8.1v-31.9h8.1L76.5,278.3
		L76.5,278.3z"/>
	<path class="st0" d="M113.3,296.9c-9.4,0-16.6-5.9-16.6-16.6c0-10.1,7.2-16.8,16.7-16.8s16.7,5.8,16.7,16.6
		C130,290.2,122.8,296.9,113.3,296.9z M113.3,270c-5.4,0-8.5,4.1-8.5,10c0,6.1,3.2,10.3,8.6,10.3c5.3,0,8.5-4.1,8.5-10.1
		S118.7,270,113.3,270z"/>
	<path class="st0" d="M157.4,264.3h7.6v32.2h-8.6l-13.4-21v20.6h-7.6v-31.9h8.8l13.3,20.7L157.4,264.3L157.4,264.3z"/>
	<path class="st0" d="M171.7,296.1v-31.9H195v6.5h-15.3v6.1H192v6.5h-12.3v6.2H195v6.5L171.7,296.1L171.7,296.1z"/>
	<path class="st0" d="M208.7,278.3l10.6-14.1h9.3L216,279.8l12.9,16.3h-9.7l-10.5-14h-0.1c0,0.9,0,14,0,14h-8.1v-31.9h8.1
		L208.7,278.3L208.7,278.3z"/>
	<path class="st0" d="M248.3,271v25.1h-8.1V271h-10.1v-6.8h28.4v6.8H248.3z"/>
	<path class="st0" d="M262.2,296.9c-2.9,0-4.8-1.9-4.8-4.6c0-2.8,1.9-4.6,4.8-4.6s4.8,1.8,4.8,4.6C267,295,265,296.9,262.2,296.9z"
		/>
	<path class="st0" d="M15.1,339.9c-1.6,0-3.8-0.4-5.4-1l-7.4,1v-34.5l7.8-1c0,0,0,13.2,0,13.4c1.5-1.5,3.7-3.2,6.7-3.2
		c5.9,0,10.1,4.8,10.1,12.3C26.9,335,21.5,339.9,15.1,339.9z M14.1,321c-1.7,0-2.9,0.7-4,1.6c0-0.1,0,10.4,0,10.4
		c0.9,0.6,2.1,1,3.6,1c3.4,0,5.3-2.7,5.3-6.6C19.1,323.4,17.3,321,14.1,321z"/>
	<path class="st0" d="M39.1,339.2h-7.8v-23.3l7.8-1v3.5c1.4-2.4,3.2-3.7,5.7-3.7c1.3,0,2.7,0.3,3.9,1l-1.6,6.9
		c-0.9-0.5-1.9-0.7-3-0.7c-1.9,0-3.7,1-5.1,3.5L39.1,339.2L39.1,339.2z"/>
	<path class="st0" d="M61.3,315.5v14c0,2.9,1.2,3.8,3.3,3.8c1.7,0,3.1-0.7,4-1.6v-16.3h7.9v23.4l-7.9,1v-3.5c-1.8,2-4.6,3.7-7.7,3.7
		c-4.6,0-7.4-3.1-7.4-8.2v-16.3H61.3z"/>
	<path class="st0" d="M90.4,340c-3.3,0-7.5-0.8-10-2.1l1.5-5.7c2.8,1.4,5.9,2.2,8.7,2.2c2.1,0,3.2-0.7,3.2-1.9c0-1.3-1.3-1.8-4-2.4
		c-5.5-1.1-9-3.1-9-7.7c0-4.4,3.9-7.6,10.5-7.6c3.2,0,7.3,0.9,9.6,2l-1.6,5.6c-2.7-1.3-5.9-2.1-8.2-2.1c-1.9,0-2.9,0.6-2.9,1.8
		c0,1.3,1.5,1.8,4.1,2.3c5.6,1.2,8.9,3.1,8.9,7.8C101.2,336.5,97.4,340,90.4,340z"/>
	<path class="st0" d="M114.2,340c-3.3,0-7.5-0.8-10-2.1l1.5-5.7c2.8,1.4,5.9,2.2,8.7,2.2c2.1,0,3.2-0.7,3.2-1.9c0-1.3-1.3-1.8-4-2.4
		c-5.5-1.1-9-3.1-9-7.7c0-4.4,3.9-7.6,10.5-7.6c3.2,0,7.3,0.9,9.6,2l-1.6,5.6c-2.7-1.3-5.9-2.1-8.2-2.1c-1.9,0-2.9,0.6-2.9,1.8
		c0,1.3,1.5,1.8,4.1,2.3c5.6,1.2,8.9,3.1,8.9,7.8C124.9,336.5,121.2,340,114.2,340z"/>
	<path class="st0" d="M135.6,329.2c0.3,3.2,2.4,5,6.3,5c2.6,0,5.3-0.9,7.7-2.3l0.8,6.1c-2.4,1.2-5.8,1.9-9.2,1.9
		c-8.1,0-13.3-4.5-13.3-12.4c0-7.7,5.3-12.8,12.8-12.8c6.7,0,10.4,4,10.4,9.9c0,1.3-0.2,3.2-0.5,4.2L135.6,329.2L135.6,329.2z
		 M143.9,325.2c0-0.1,0-0.4,0-0.5c0-2.8-1.2-4.5-3.6-4.5c-2.7,0-4.3,2.3-4.6,5H143.9z"/>
	<path class="st0" d="M156.9,339.2v-33.7l7.8-1v34.7H156.9z"/>
	<path class="st0" d="M178.8,340c-3.3,0-7.5-0.8-10-2.1l1.5-5.7c2.8,1.4,5.9,2.2,8.7,2.2c2.1,0,3.2-0.7,3.2-1.9c0-1.3-1.3-1.8-4-2.4
		c-5.5-1.1-9-3.1-9-7.7c0-4.4,3.9-7.6,10.5-7.6c3.2,0,7.3,0.9,9.6,2l-1.6,5.6c-2.7-1.3-5.9-2.1-8.2-2.1c-1.9,0-2.9,0.6-2.9,1.8
		c0,1.3,1.5,1.8,4.1,2.3c5.6,1.2,8.9,3.1,8.9,7.8C189.6,336.5,185.8,340,178.8,340z"/>
</g>
</svg>
